<svg id="c5d072ae-5631-4e1c-baf2-9faec7c899f8" data-name="Layer 1" xmlns="http://www.w3.org/2000/svg" viewBox="0 0 125.89 26.77"><title>native-logo-final-small</title><path d="M132.49,17.91A7.44,7.44,0,0,0,130,13.42a7.55,7.55,0,0,0-5.36-1.53,8.18,8.18,0,0,0-7.7,5.3,10.77,10.77,0,0,0-.23,7.38,7.75,7.75,0,0,0,3.94,4.87,10.08,10.08,0,0,0,4.6,1.08A12.9,12.9,0,0,0,131.77,29c0.29-.16.4-0.27,0.21-0.61-0.42-.77-0.81-1.56-1.18-2.36a0.37,0.37,0,0,0-.61-0.21,8.45,8.45,0,0,1-3.76,1.05c-1.7,0-3.22-.25-4.15-1.88a6.8,6.8,0,0,1-.78-2.24c-0.07-.38,0-0.47.38-0.47,1.72,0,3.44,0,5.16,0h5.21c0.31,0,.46,0,0.47-0.42A18.7,18.7,0,0,0,132.49,17.91ZM127.09,19h-5.71a5.41,5.41,0,0,1,.74-2.18,3.26,3.26,0,0,1,3.52-1.4,2.87,2.87,0,0,1,2.27,2.63C128.06,19,128.06,19,127.09,19Z" transform="translate(-6.83 -4.23)" style="fill:#484749"/><path d="M52.1,15.87a4.42,4.42,0,0,0-2.47-3.44,6.83,6.83,0,0,0-5.45,0,7.74,7.74,0,0,0-2.9,2.13c0-.68,0-1.24,0-1.81,0-.3,0-0.43-0.39-0.43-1.32,0-2.64,0-4,0a0.31,0.31,0,0,0-.38.38q0,8.52,0,17a0.3,0.3,0,0,0,.38.37c1.32,0,2.64,0,4,0,0.41,0,.51-0.11.51-0.51,0-3.67,0-7.33,0-11a0.75,0.75,0,0,1,.1-0.55A4.84,4.84,0,0,1,44.76,16c1.61-.14,2.39.51,2.58,1.82a6.36,6.36,0,0,1,.07.93c0,3.61,0,7.23,0,10.84,0,0.41.06,0.56,0.52,0.55,1.27,0,2.54,0,3.8,0,0.42,0,.55-0.08.55-0.53,0-3.94,0-7.89,0-11.83A9.85,9.85,0,0,0,52.1,15.87Z" transform="translate(-6.83 -4.23)" style="fill:#484749"/><path d="M70.67,26.29c0-2.45,0-4.9,0-7.35a14.23,14.23,0,0,0-.2-2.54,4.82,4.82,0,0,0-3.29-4,12,12,0,0,0-5-.49,10.26,10.26,0,0,0-5.6,2.23,0.34,0.34,0,0,0-.08.58c0.51,0.68,1,1.38,1.49,2.07s0.41,0.57,1,.18a6.68,6.68,0,0,1,5-1.2,2,2,0,0,1,1.76,1.76c0.05,0.43,0,.87.06,1.3s-0.1.38-.39,0.38a17.76,17.76,0,0,0-2.39.11,11.21,11.21,0,0,0-4.88,1.59,5.41,5.41,0,0,0-1.43,7.71c1.39,1.73,3.31,2,5.36,1.81a6.49,6.49,0,0,0,4-2.22c0.08,0.53.18,1,.22,1.44a0.39,0.39,0,0,0,.5.42c1.3,0,2.61,0,3.91,0,0.45,0,.46-0.15.39-0.5A17.5,17.5,0,0,1,70.67,26.29Zm-6.07.13a3.77,3.77,0,0,1-2.64.49,1.66,1.66,0,0,1-1.49-1.19,2.36,2.36,0,0,1,.61-2.39,4.23,4.23,0,0,1,2.2-1,12,12,0,0,1,2.07-.17c0.35,0,.51.07,0.47,0.45s0,0.8,0,1.2a1.54,1.54,0,0,0,0,.31A2,2,0,0,1,64.6,26.42Z" transform="translate(-6.83 -4.23)" style="fill:#484749"/><path d="M114.74,12.29c-1.32,0-2.64,0-4,0a0.59,0.59,0,0,0-.69.49c-1,3.19-2,6.38-3.06,9.56-0.18.56-.37,1.11-0.6,1.78-0.1-.28-0.15-0.44-0.2-0.6l-3.39-10.81a0.43,0.43,0,0,0-.47-0.42c-1.61,0-3.23,0-4.86,0a0.44,0.44,0,0,0,0,.11q3.22,8.68,6.44,17.37a0.43,0.43,0,0,0,.5.31c1.27,0,2.54,0,3.8,0a0.45,0.45,0,0,0,.52-0.36q3.14-8.52,6.31-17C115.2,12.31,115.07,12.29,114.74,12.29Z" transform="translate(-6.83 -4.23)" style="fill:#484749"/><path d="M85.34,26.21C85.27,26,85.21,25.87,84.93,26a4.15,4.15,0,0,1-2.09.51,1.48,1.48,0,0,1-1.63-1.34,5.15,5.15,0,0,1-.1-0.93c0-2.66,0-5.32,0-8,0-.35.13-0.39,0.42-0.38,1.13,0,2.26,0,3.39,0,0.29,0,.38-0.07.38-0.37,0-.94,0-1.88,0-2.81,0-.39-0.12-0.45-0.47-0.45-1.09,0-2.19,0-3.28,0-0.33,0-.44-0.07-0.44-0.42,0-1.41,0-2.81,0-4.22,0-.38-0.06-0.54-0.49-0.53-1.28,0-2.57,0-3.86,0-0.36,0-.47.07-0.46,0.45,0,1.37,0,2.75,0,4.12,0,0.53-.15.63-0.63,0.6s-1.25,0-1.88,0a0.31,0.31,0,0,0-.39.38q0,1.43,0,2.87a0.31,0.31,0,0,0,.38.38c0.69,0,1.39,0,2.08,0,0.36,0,.42.11,0.42,0.44,0,1.55,0,3.09,0,5a45.76,45.76,0,0,0,.11,5.07,4.15,4.15,0,0,0,2.85,3.74,9.53,9.53,0,0,0,6.84-.5,0.31,0.31,0,0,0,.17-0.46Q85.8,27.69,85.34,26.21Z" transform="translate(-6.83 -4.23)" style="fill:#484749"/><path d="M93.95,12.29c-1.34,0-2.68,0-4,0-0.32,0-.41.08-0.41,0.4q0,8.5,0,17c0,0.32.07,0.41,0.4,0.4,1.34,0,2.68,0,4,0,0.44,0,.5-0.15.49-0.53,0-2.78,0-5.56,0-8.34s0-5.63,0-8.44C94.44,12.39,94.34,12.28,93.95,12.29Z" transform="translate(-6.83 -4.23)" style="fill:#484749"/><path d="M92,4.23a2.91,2.91,0,0,0-3,2.86,3,3,0,0,0,5.94,0A2.9,2.9,0,0,0,92,4.23Z" transform="translate(-6.83 -4.23)" style="fill:#484749"/><path d="M11.76,15.67" transform="translate(-6.83 -4.23)" style="fill:#80c452"/><rect y="7.17" width="14.6" height="4.34" style="fill:#484748"/><rect x="6.36" y="14.8" width="14.6" height="4.34" style="fill:#484748"/><rect x="15.98" y="7.17" width="4.98" height="4.34" style="fill:#484748"/><rect y="22.43" width="14.6" height="4.34" style="fill:#484748"/><rect x="15.98" y="22.43" width="4.98" height="4.34" style="fill:#484748"/><rect y="14.8" width="4.98" height="4.34" style="fill:#484748"/></svg>